<svg width="320" height="40" viewBox="0 0 320 40" fill="none" xmlns="http://www.w3.org/2000/svg">
<path d="M143.343 39.8944V23.5641L157.296 39.8944H143.343Z" fill="#0774A9"/>
<path d="M143.343 16.7153V0.539078H157.296L143.343 16.7153Z" fill="#0774A9"/>
<path d="M149.937 20.1421L166.465 39.8944H179.118L162.869 20.1421L179.118 0.539047H166.465L149.937 20.1421Z" fill="#0774A9"/>
<path d="M30.437 25.0176H39.3312C38.5516 33.806 30.9038 39.9955 19.9255 39.9955C8.94723 39.9955 0 33.1756 0 19.9978C0 6.81996 8.62958 4.57764e-05 19.9255 4.57764e-05C31.2215 4.57764e-05 38.7874 6.59376 39.3264 14.9779H30.4562C29.2289 10.7425 26.2738 8.7307 19.9207 8.7307C13.1922 8.7307 8.53332 12.1816 8.53332 19.9978C8.53332 27.814 13.1922 31.2696 19.9207 31.2696C26.6492 31.2696 29.3444 28.9017 30.4321 25.0176H30.437Z" fill="white"/>
<path d="M53.5053 32.2611H77.2908V39.9955H44.9431V0.640167H53.5005V32.2611H53.5053Z" fill="white"/>
<path d="M82.9747 39.9955V0.640167H91.5321V39.9955H82.9747Z" fill="white"/>
<path d="M127.302 25.0176H136.196C135.416 33.806 127.769 39.9954 116.79 39.9954C105.812 39.9954 96.8649 33.1755 96.8649 19.9977C96.8649 6.81992 105.495 0 116.795 0C128.096 0 135.657 6.59371 136.196 14.9778H127.326C126.099 10.7425 123.144 8.73065 116.79 8.73065C110.062 8.73065 105.403 12.1815 105.403 19.9977C105.403 27.8139 110.062 31.2696 116.79 31.2696C123.519 31.2696 126.214 28.9016 127.302 25.0176Z" fill="white"/>
<path d="M236.637 19.9977C236.637 32.9349 227.883 39.9954 216.433 39.9954C204.983 39.9954 196.228 33.1755 196.228 19.9977C196.228 6.81992 204.983 0 216.433 0C227.883 0 236.637 7.06538 236.637 19.9977ZM228.253 19.9977C228.253 12.3115 223.253 8.73065 216.433 8.73065C209.613 8.73065 204.612 12.1815 204.612 19.9977C204.612 27.8139 209.613 31.2696 216.433 31.2696C223.253 31.2696 228.253 27.5636 228.253 19.9977Z" fill="white"/>
<path d="M272.691 0.640167H281.248V39.9955H268.918L251.668 11.7532H250.686V39.9955H242.129V0.640167H253.694V0.683484H254.455L271.675 28.8872H272.686V0.640167H272.691Z" fill="white"/>
<path d="M319.757 0.640167V8.36973H295.971V16.4506H319.757V24.185H295.971V32.1697H319.757V40.0003H295.971H287.414V0.640167H319.761H319.757Z" fill="white"/>
</svg>
